M48
; DRILL file {KiCad 9.0.7} date 2026-08-13T10:19:10+1200
; FORMAT={-:-/ absolute / metric / decimal}
; #@! TF.CreationDate,2026-08-13T10:19:10+12:00
; #@! TF.GenerationSoftware,Kicad,Pcbnew,9.0.7
; #@! TF.FileFunction,MixedPlating,1,4
FMAT,2
METRIC
; #@! TA.AperFunction,Plated,PTH,ViaDrill
T1C0.300
; #@! TA.AperFunction,Plated,PTH,ComponentDrill
T2C0.600
; #@! TA.AperFunction,Plated,PTH,ComponentDrill
T3C1.000
; #@! TA.AperFunction,Plated,PTH,ComponentDrill
T4C2.200
; #@! TA.AperFunction,NonPlated,NPTH,ComponentDrill
T5C0.650
%
G90
G05
T1
X90.4Y-80.7
X90.4Y-81.8
X90.4Y-82.9
X90.4Y-84.0
X90.4Y-85.2
X91.4Y-61.5
X91.4Y-75.8
X92.4Y-61.5
X92.4Y-75.8
X92.7Y-82.825
X93.0Y-91.3
X93.1Y-87.2
X93.3Y-111.0
X93.4Y-61.5
X93.4Y-75.8
X93.4Y-84.325
X94.0Y-91.3
X94.2Y-100.7
X94.3Y-111.0
X94.4Y-61.5
X94.4Y-75.8
X95.0Y-91.3
X95.2Y-100.7
X95.3Y-111.0
X95.4Y-61.5
X95.4Y-75.8
X95.5Y-71.5
X95.5Y-72.3
X95.5Y-73.1
X95.712Y-106.95
X95.713Y-94.95
X96.0Y-91.3
X96.2Y-100.7
X96.3Y-111.0
X96.363Y-106.95
X96.363Y-94.95
X96.7Y-81.7
X97.0Y-91.3
X97.2Y-100.7
X97.3Y-72.0
X97.3Y-74.0
X97.3Y-111.0
X97.334Y-89.673
X97.6Y-76.2
X97.994Y-85.325
X98.1Y-86.7
X98.2Y-100.7
X98.254Y-82.937
X98.4Y-74.0
X98.6Y-81.0
X98.7Y-57.8
X98.8Y-76.0
X99.0Y-63.3
X99.1Y-85.0
X99.2Y-80.4
X99.3Y-71.9
X99.5Y-74.0
X99.7Y-57.8
X99.7Y-113.8
X100.0Y-88.2
X100.1Y-76.2
X100.4Y-61.2
X100.529Y-82.937
X100.7Y-57.8
X100.7Y-113.8
X100.862Y-97.973
X100.862Y-98.623
X100.89Y-103.223
X100.89Y-103.873
X100.894Y-91.223
X100.894Y-91.873
X100.901Y-109.973
X100.901Y-110.623
X101.7Y-57.8
X101.7Y-113.8
X101.9Y-61.2
X101.9Y-71.7
X102.0Y-84.7
X102.7Y-57.8
X102.7Y-113.8
X103.1Y-88.3
X103.131Y-80.354
X103.202Y-78.925
X103.4Y-61.2
X103.9Y-71.7
X104.7Y-74.2
X104.7Y-89.7
X104.8Y-57.8
X105.1Y-76.6
X105.2Y-63.3
X105.8Y-57.8
X105.8Y-116.1
X106.1Y-76.6
X106.3Y-81.6
X106.6Y-62.2
X106.6Y-65.8
X106.8Y-57.8
X106.8Y-116.1
X107.0Y-84.5
X107.0Y-85.5
X107.0Y-86.5
X107.0Y-87.5
X107.0Y-88.5
X107.1Y-70.425
X107.1Y-71.025
X107.1Y-76.6
X107.3Y-91.7
X107.4Y-80.4
X107.6Y-78.825
X107.7Y-70.425
X107.7Y-71.025
X107.8Y-57.8
X107.8Y-116.1
X107.9Y-100.2
X107.9Y-104.2
X108.0Y-102.1
X108.1Y-76.6
X108.1Y-92.6
X108.3Y-70.425
X108.3Y-71.025
X108.5Y-91.7
X108.7Y-61.0
X108.7Y-112.3
X108.8Y-57.8
X108.8Y-116.1
X109.0Y-92.6
X109.1Y-76.6
X109.6Y-111.6
X109.7Y-61.0
X109.8Y-110.7
X109.8Y-116.1
X109.9Y-92.6
X110.1Y-101.1
X110.2Y-97.225
X110.5Y-109.225
X110.7Y-61.0
X110.8Y-112.4
X110.9Y-101.1
X111.4Y-91.3
X111.4Y-103.2
X111.7Y-61.0
X111.8Y-101.4
X112.0Y-74.225
X112.1Y-89.8
X112.3Y-104.7
X112.3Y-109.225
X112.4Y-92.7
X112.4Y-95.825
X112.4Y-96.525
X112.4Y-97.325
X112.5Y-64.125
X112.5Y-64.825
X112.5Y-80.425
X112.5Y-81.125
X112.5Y-108.325
X112.7Y-61.0
X113.0Y-109.725
X113.1Y-63.725
X113.1Y-64.425
X113.1Y-75.07
X113.1Y-80.025
X113.1Y-80.725
X114.1Y-62.425
X114.1Y-63.025
X114.1Y-63.625
X114.1Y-78.925
X114.1Y-79.525
X114.1Y-80.125
X114.4Y-116.1
X114.7Y-62.425
X114.7Y-63.025
X114.7Y-63.625
X114.7Y-78.925
X114.7Y-79.525
X114.7Y-80.125
X115.2Y-87.8
X115.3Y-86.7
X115.4Y-116.1
X115.6Y-87.3
X115.6Y-95.125
X115.6Y-95.725
X115.6Y-96.325
X115.8Y-71.0
X116.0Y-85.3
X116.0Y-86.0
X116.2Y-95.125
X116.2Y-95.725
X116.2Y-96.325
X116.4Y-116.1
X116.9Y-102.675
X116.9Y-91.431
X116.9Y-98.3
X116.9Y-99.1
X116.9Y-100.439
X117.0Y-80.225
X117.1Y-94.6
X117.1Y-95.6
X117.1Y-96.7
X117.4Y-116.1
X117.5Y-100.439
X117.6Y-91.425
X117.6Y-102.675
X117.7Y-83.8
X117.7Y-85.1
X117.7Y-86.0
X118.1Y-64.7
X118.125Y-81.973
X118.4Y-116.1
X118.5Y-85.1
X118.5Y-86.0
X118.7Y-83.8
X119.025Y-80.373
X119.1Y-64.7
X119.225Y-78.073
X119.8Y-82.325
X120.0Y-97.7
X120.1Y-64.7
X120.2Y-62.5
X120.4Y-98.8
X120.8Y-108.825
X120.8Y-109.725
X121.025Y-82.073
X121.1Y-64.7
X121.2Y-62.5
X121.3Y-80.525
X121.4Y-96.8
X121.4Y-98.1
X121.6Y-108.825
X121.6Y-109.725
X121.625Y-81.473
X121.8Y-83.925
X122.0Y-66.1
X122.0Y-68.0
X122.1Y-64.7
X122.1Y-84.9
X122.1Y-97.4
X122.2Y-62.5
X122.2Y-80.625
X122.4Y-108.825
X122.6Y-81.6
X122.725Y-82.573
X122.8Y-84.9
X122.9Y-96.8
X123.0Y-76.0
X123.1Y-116.1
X123.3Y-92.1
X123.7Y-64.5
X123.882Y-94.175
X124.0Y-92.1
X124.1Y-116.1
X124.382Y-94.763
X124.382Y-95.45
X124.8Y-75.9
X124.9Y-93.7
X125.1Y-116.1
X125.324Y-87.249
X125.6Y-93.4
X125.6Y-94.1
X125.8Y-96.2
X125.8Y-109.8
X126.06Y-87.25
X126.1Y-116.1
X126.3Y-71.2
X126.3Y-88.9
X126.3Y-93.4
X126.4Y-106.175
X126.5Y-72.3
X126.6Y-76.825
X126.7Y-95.4
X126.95Y-105.875
X127.1Y-116.1
X127.4Y-80.1
X127.4Y-105.425
X127.4Y-109.9
X127.6Y-94.7
X127.612Y-72.427
X127.8Y-80.6
X127.9Y-64.5
X128.4Y-111.8
X128.45Y-65.375
X128.6Y-86.7
X128.6Y-108.7
X128.9Y-64.925
X129.175Y-72.073
X129.175Y-72.723
X129.3Y-88.6
X129.4Y-111.8
X129.456Y-68.359
X129.5Y-69.9
X129.9Y-65.1
X129.9Y-69.025
X130.1Y-105.0
X130.1Y-106.0
X130.1Y-107.0
X130.1Y-108.0
X130.1Y-109.0
X130.3Y-69.9
X130.4Y-64.5
X130.4Y-111.8
X130.5Y-82.7
X130.5Y-84.425
X130.6Y-76.525
X130.7Y-66.525
X130.8Y-81.8
X130.9Y-83.4
X131.0Y-116.1
X131.1Y-69.5
X131.1Y-70.3
X131.376Y-74.549
X131.4Y-82.7
X131.4Y-89.525
X131.4Y-103.325
X131.4Y-104.025
X131.4Y-104.725
X131.4Y-111.8
X131.5Y-81.3
X131.6Y-83.7
X131.629Y-75.308
X131.7Y-76.105
X131.8Y-64.4
X131.9Y-108.4
X132.0Y-82.3
X132.0Y-83.0
X132.0Y-116.1
X132.025Y-79.725
X132.1Y-103.325
X132.1Y-104.025
X132.1Y-104.725
X132.3Y-93.325
X132.4Y-111.8
X132.898Y-74.571
X133.0Y-116.1
X133.3Y-64.4
X133.5Y-69.625
X133.5Y-110.7
X133.8Y-101.9
X134.0Y-116.1
X134.2Y-85.67
X134.3Y-70.625
X134.375Y-66.75
X134.5Y-111.8
X134.547Y-74.484
X134.8Y-73.725
X134.8Y-101.9
X135.0Y-116.1
X135.2Y-85.17
X135.2Y-108.4
X135.7Y-77.4
X135.7Y-78.4
X135.7Y-79.4
X135.7Y-80.4
X135.7Y-81.4
X135.8Y-64.4
X135.8Y-101.9
X136.3Y-95.6
X136.4Y-112.269
X136.7Y-92.75
X136.8Y-93.9
X136.8Y-101.9
X136.8Y-69.05
X137.088Y-64.3
X137.3Y-68.425
X137.3Y-89.125
X137.5Y-111.8
X137.8Y-101.9
X138.2Y-95.2
X138.2Y-109.8
X138.376Y-65.501
X138.5Y-67.225
X138.5Y-111.8
X139.4Y-110.9
X139.6Y-115.1
X140.3Y-107.1
X140.5Y-109.8
X140.6Y-115.1
X140.9Y-108.0
X140.9Y-108.9
X141.4Y-109.8
X141.6Y-77.2
X141.6Y-78.2
X141.6Y-79.2
X141.6Y-80.2
X141.6Y-82.2
X141.6Y-83.2
X141.6Y-84.2
X141.6Y-115.1
X142.075Y-89.675
X142.2Y-88.973
X142.279Y-68.446
X142.279Y-69.173
X142.3Y-110.9
X142.5Y-98.8
X142.6Y-115.1
X143.0Y-64.625
X143.025Y-90.825
X143.1Y-65.825
X143.6Y-115.1
X143.7Y-87.8
X143.725Y-90.825
X143.8Y-101.0
X143.8Y-103.325
X143.8Y-103.925
X143.8Y-104.525
X143.8Y-110.925
X144.4Y-103.325
X144.4Y-103.925
X144.4Y-104.525
X144.7Y-87.8
X144.7Y-102.1
X145.0Y-103.325
X145.0Y-103.925
X145.0Y-104.525
X145.1Y-98.8
X145.1Y-111.3
X145.5Y-62.17
X145.7Y-87.8
X145.7Y-102.1
X146.325Y-82.8
X146.5Y-112.6
X146.52Y-104.645
X146.7Y-87.8
X146.7Y-102.1
X146.725Y-71.825
X146.725Y-72.425
X146.8Y-98.8
X146.95Y-59.854
X147.1Y-82.825
X147.3Y-84.3
X147.4Y-83.502
X147.7Y-68.425
X147.7Y-87.8
X147.7Y-102.1
X147.7Y-111.3
X147.9Y-67.125
X147.95Y-59.854
X148.0Y-82.7
X148.0Y-101.1
X148.1Y-83.502
X148.1Y-84.5
X148.4Y-61.87
X148.7Y-102.1
X148.95Y-59.854
X149.0Y-79.225
X149.0Y-79.925
X149.0Y-80.625
X149.1Y-70.625
X149.1Y-71.325
X149.1Y-72.025
X149.3Y-82.1
X149.3Y-83.9
X149.3Y-115.5
X149.4Y-98.8
X149.5Y-62.7
X149.8Y-70.625
X149.95Y-59.854
X150.3Y-115.5
X150.5Y-70.525
X150.95Y-59.854
X151.2Y-70.525
X151.3Y-95.0
X151.3Y-96.0
X151.3Y-97.0
X151.3Y-98.0
X151.3Y-99.0
X151.3Y-115.5
X151.31Y-63.768
X151.5Y-106.925
X151.676Y-66.715
X151.877Y-85.847
X151.9Y-70.525
X152.1Y-107.525
X152.3Y-115.5
X152.4Y-100.225
X152.6Y-70.525
X152.7Y-106.925
X152.7Y-108.125
X152.9Y-91.825
X152.954Y-63.745
X153.1Y-90.125
X153.1Y-90.825
X153.1Y-105.725
X153.2Y-65.425
X153.2Y-66.125
X153.3Y-69.3
X153.3Y-79.748
X153.3Y-80.4
X153.3Y-81.9
X153.3Y-108.625
X153.3Y-115.5
X153.65Y-66.875
X153.9Y-92.87
X154.1Y-83.77
X154.2Y-108.125
X154.2Y-108.825
X154.2Y-109.525
X154.734Y-81.108
X154.734Y-81.708
X154.8Y-96.025
X154.8Y-96.625
X154.9Y-108.8
X154.92Y-65.256
X155.011Y-59.833
X155.334Y-81.108
X155.334Y-81.708
X155.4Y-96.025
X155.4Y-96.625
X155.934Y-81.108
X155.934Y-81.708
X156.0Y-96.025
X156.0Y-96.625
X156.011Y-59.833
X156.1Y-68.1
X156.1Y-113.2
X156.4Y-62.8
X157.011Y-59.833
X157.1Y-113.2
X158.011Y-59.833
X158.1Y-113.2
X159.011Y-59.833
X159.1Y-113.2
X159.4Y-67.2
X159.7Y-97.4
X160.1Y-113.2
X160.2Y-82.5
X160.6Y-67.2
X160.7Y-97.4
X161.2Y-82.5
X161.7Y-97.4
X161.8Y-99.9
X162.0Y-64.0
X162.0Y-65.0
X162.0Y-66.0
X162.0Y-67.0
X162.2Y-82.5
X162.7Y-97.4
X162.8Y-99.9
X163.0Y-65.0
X163.0Y-66.0
X163.0Y-67.0
X163.2Y-82.5
X163.404Y-84.648
X163.6Y-72.9
X163.6Y-75.8
X163.6Y-78.3
X163.7Y-97.4
X163.8Y-99.9
X164.0Y-66.0
X164.0Y-67.0
X164.2Y-82.5
X164.404Y-84.648
X164.6Y-72.9
X164.6Y-75.8
X164.6Y-78.3
X164.8Y-99.9
X164.8Y-114.4
X165.0Y-67.0
X165.404Y-84.648
X165.5Y-71.5
X165.6Y-72.9
X165.6Y-75.8
X165.6Y-78.3
X165.8Y-99.9
X165.8Y-114.4
X165.9Y-63.7
X166.404Y-84.648
X166.5Y-71.5
X166.6Y-72.9
X166.6Y-75.8
X166.6Y-78.3
X166.8Y-114.4
X166.875Y-59.812
X166.9Y-63.7
X166.9Y-97.3
X167.404Y-84.648
X167.5Y-71.5
X167.6Y-72.9
X167.6Y-75.8
X167.6Y-78.3
X167.8Y-114.4
X167.875Y-59.812
X167.9Y-63.7
X167.9Y-97.3
X168.0Y-82.5
X168.5Y-71.5
X168.875Y-59.812
X168.9Y-63.7
X168.9Y-97.3
X169.0Y-82.5
X169.5Y-71.5
X169.875Y-59.812
X169.9Y-63.7
X169.9Y-97.3
X170.0Y-82.5
X170.875Y-59.812
X170.9Y-97.3
X171.0Y-82.5
X172.04Y-82.84
X172.5Y-86.3
X172.5Y-89.6
X172.5Y-93.0
X172.5Y-109.4
X173.1Y-99.3
X173.1Y-102.6
X173.1Y-106.0
X173.165Y-78.213
X173.2Y-75.9
X173.5Y-86.3
X173.5Y-89.6
X173.5Y-93.0
X173.5Y-109.4
X174.1Y-99.3
X174.1Y-102.6
X174.1Y-106.0
X174.14Y-61.1
X174.5Y-86.3
X174.5Y-89.6
X174.5Y-93.0
X174.5Y-109.4
X175.1Y-99.3
X175.1Y-102.6
X175.1Y-106.0
X175.5Y-86.3
X175.5Y-89.6
X175.5Y-93.0
X175.5Y-109.4
X176.1Y-99.3
X176.1Y-102.6
X176.1Y-106.0
X176.5Y-86.3
X176.5Y-89.6
X176.5Y-93.0
X176.5Y-109.4
X177.1Y-99.3
X177.1Y-102.6
X177.1Y-106.0
T3
X117.82Y-58.36
X117.82Y-60.9
X120.36Y-58.36
X120.36Y-60.9
X122.9Y-58.36
X122.9Y-60.9
X125.44Y-58.36
X125.44Y-60.9
X127.98Y-58.36
X127.98Y-60.9
X129.46Y-95.76
X129.46Y-98.3
X130.52Y-58.36
X130.52Y-60.9
X132.0Y-95.76
X132.0Y-98.3
X133.06Y-58.36
X133.06Y-60.9
X134.54Y-95.76
X134.54Y-98.3
X135.6Y-58.36
X135.6Y-60.9
X138.16Y-96.873
X140.7Y-96.873
X168.925Y-91.95
X168.925Y-94.49
X169.075Y-106.75
X169.075Y-109.29
X169.125Y-66.56
X169.125Y-69.1
X175.4Y-63.3
X175.4Y-65.84
X175.4Y-68.38
X175.4Y-70.92
X175.4Y-73.46
X175.4Y-76.0
X175.4Y-78.54
X175.4Y-81.08
X177.94Y-63.3
X177.94Y-65.84
X177.94Y-68.38
X177.94Y-70.92
X177.94Y-73.46
X177.94Y-76.0
X177.94Y-78.54
X177.94Y-81.08
T4
X89.7Y-115.4
X90.0Y-59.0
X176.9Y-115.0
X177.0Y-59.0
T5
X94.099Y-80.035
X94.099Y-85.815
T2
G00X90.719Y-78.605
M15
G01X90.119Y-78.605
M16
G05
G00X90.719Y-87.245
M15
G01X90.119Y-87.245
M16
G05
G00X95.149Y-78.605
M15
G01X94.049Y-78.605
M16
G05
G00X95.149Y-87.245
M15
G01X94.049Y-87.245
M16
G05
M30
