%TF.GenerationSoftware,KiCad,Pcbnew,9.0.7*%
%TF.CreationDate,2026-08-13T10:17:55+12:00*%
%TF.ProjectId,PIM_V01,50494d5f-5630-4312-9e6b-696361645f70,V01*%
%TF.SameCoordinates,Original*%
%TF.FileFunction,Soldermask,Top*%
%TF.FilePolarity,Negative*%
%FSLAX46Y46*%
G04 Gerber Fmt 4.6, Leading zero omitted, Abs format (unit mm)*
G04 Created by KiCad (PCBNEW 9.0.7) date 2026-08-13 10:17:55*
%MOMM*%
%LPD*%
G01*
G04 APERTURE LIST*
G04 Aperture macros list*
%AMRoundRect*
0 Rectangle with rounded corners*
0 $1 Rounding radius*
0 $2 $3 $4 $5 $6 $7 $8 $9 X,Y pos of 4 corners*
0 Add a 4 corners polygon primitive as box body*
4,1,4,$2,$3,$4,$5,$6,$7,$8,$9,$2,$3,0*
0 Add four circle primitives for the rounded corners*
1,1,$1+$1,$2,$3*
1,1,$1+$1,$4,$5*
1,1,$1+$1,$6,$7*
1,1,$1+$1,$8,$9*
0 Add four rect primitives between the rounded corners*
20,1,$1+$1,$2,$3,$4,$5,0*
20,1,$1+$1,$4,$5,$6,$7,0*
20,1,$1+$1,$6,$7,$8,$9,0*
20,1,$1+$1,$8,$9,$2,$3,0*%
G04 Aperture macros list end*
%ADD10C,0.000000*%
%ADD11RoundRect,0.250001X-1.249999X0.799999X-1.249999X-0.799999X1.249999X-0.799999X1.249999X0.799999X0*%
%ADD12RoundRect,0.200000X-0.600000X0.200000X-0.600000X-0.200000X0.600000X-0.200000X0.600000X0.200000X0*%
%ADD13C,4.400000*%
%ADD14R,1.700000X1.700000*%
%ADD15C,1.700000*%
%ADD16R,2.184400X2.184400*%
%ADD17RoundRect,0.200000X0.200000X0.275000X-0.200000X0.275000X-0.200000X-0.275000X0.200000X-0.275000X0*%
%ADD18RoundRect,0.225000X0.225000X0.250000X-0.225000X0.250000X-0.225000X-0.250000X0.225000X-0.250000X0*%
%ADD19RoundRect,0.200000X-0.200000X-0.275000X0.200000X-0.275000X0.200000X0.275000X-0.200000X0.275000X0*%
%ADD20RoundRect,0.225000X-0.225000X-0.250000X0.225000X-0.250000X0.225000X0.250000X-0.225000X0.250000X0*%
%ADD21RoundRect,0.250000X-0.650000X0.375000X-0.650000X-0.375000X0.650000X-0.375000X0.650000X0.375000X0*%
%ADD22RoundRect,0.150000X-0.350000X0.150000X-0.350000X-0.150000X0.350000X-0.150000X0.350000X0.150000X0*%
%ADD23RoundRect,0.250000X0.350000X-0.450000X0.350000X0.450000X-0.350000X0.450000X-0.350000X-0.450000X0*%
%ADD24RoundRect,0.200000X-0.275000X0.200000X-0.275000X-0.200000X0.275000X-0.200000X0.275000X0.200000X0*%
%ADD25R,1.700000X0.900000*%
%ADD26RoundRect,0.218750X0.256250X-0.218750X0.256250X0.218750X-0.256250X0.218750X-0.256250X-0.218750X0*%
%ADD27RoundRect,0.150000X0.825000X0.150000X-0.825000X0.150000X-0.825000X-0.150000X0.825000X-0.150000X0*%
%ADD28RoundRect,0.225000X0.250000X-0.225000X0.250000X0.225000X-0.250000X0.225000X-0.250000X-0.225000X0*%
%ADD29RoundRect,0.050000X-0.450000X0.525000X-0.450000X-0.525000X0.450000X-0.525000X0.450000X0.525000X0*%
%ADD30C,1.000000*%
%ADD31RoundRect,0.150000X-0.512500X-0.150000X0.512500X-0.150000X0.512500X0.150000X-0.512500X0.150000X0*%
%ADD32RoundRect,0.225000X-0.250000X0.225000X-0.250000X-0.225000X0.250000X-0.225000X0.250000X0.225000X0*%
%ADD33R,1.200000X1.200000*%
%ADD34RoundRect,0.200000X0.275000X-0.200000X0.275000X0.200000X-0.275000X0.200000X-0.275000X-0.200000X0*%
%ADD35RoundRect,0.075000X0.725000X0.075000X-0.725000X0.075000X-0.725000X-0.075000X0.725000X-0.075000X0*%
%ADD36RoundRect,0.075000X0.075000X0.725000X-0.075000X0.725000X-0.075000X-0.725000X0.075000X-0.725000X0*%
%ADD37RoundRect,0.125000X-0.200000X-0.125000X0.200000X-0.125000X0.200000X0.125000X-0.200000X0.125000X0*%
%ADD38R,3.400000X4.300000*%
%ADD39RoundRect,0.218750X-0.218750X-0.256250X0.218750X-0.256250X0.218750X0.256250X-0.218750X0.256250X0*%
%ADD40RoundRect,0.137500X-0.612500X-0.137500X0.612500X-0.137500X0.612500X0.137500X-0.612500X0.137500X0*%
%ADD41C,0.650000*%
%ADD42RoundRect,0.150000X-0.500000X0.150000X-0.500000X-0.150000X0.500000X-0.150000X0.500000X0.150000X0*%
%ADD43RoundRect,0.075000X-0.575000X0.075000X-0.575000X-0.075000X0.575000X-0.075000X0.575000X0.075000X0*%
%ADD44O,2.100000X1.000000*%
%ADD45O,1.600000X1.000000*%
%ADD46RoundRect,0.218750X0.218750X0.256250X-0.218750X0.256250X-0.218750X-0.256250X0.218750X-0.256250X0*%
%ADD47R,0.812800X0.406400*%
%ADD48R,0.610690X0.584822*%
%ADD49R,0.127000X0.127000*%
%ADD50R,4.140698X4.066296*%
%ADD51R,0.510168X0.465780*%
G04 APERTURE END LIST*
D10*
%TO.C,Q1*%
G36*
X103489902Y-66558000D02*
G01*
X104204102Y-66558000D01*
X104204102Y-70622000D01*
X103489902Y-70622000D01*
X103489902Y-71206200D01*
X102880302Y-71206200D01*
X102880302Y-70622000D01*
X100571902Y-70622000D01*
X100571604Y-71091900D01*
X100063604Y-71091900D01*
X100063604Y-66088100D01*
X100571604Y-66088100D01*
X100571902Y-66558000D01*
X102880302Y-66558000D01*
X102880302Y-65973800D01*
X103489902Y-65973800D01*
X103489902Y-66558000D01*
G37*
%TD*%
D11*
%TO.C,J6*%
X89900000Y-111375000D03*
X89900000Y-102525000D03*
D12*
X92800000Y-108825000D03*
X92800000Y-107575000D03*
X92800000Y-106325000D03*
X92800000Y-105075000D03*
%TD*%
D13*
%TO.C,H4*%
X176900000Y-115000000D03*
%TD*%
D14*
%TO.C,J10*%
X175400000Y-63300000D03*
D15*
X177940000Y-63300000D03*
X175400000Y-65840000D03*
X177940000Y-65840000D03*
X175400000Y-68380000D03*
X177940000Y-68380000D03*
X175400000Y-70920000D03*
X177940000Y-70920000D03*
X175400000Y-73460000D03*
X177940000Y-73460000D03*
X175400000Y-76000000D03*
X177940000Y-76000000D03*
X175400000Y-78540000D03*
X177940000Y-78540000D03*
X175400000Y-81080000D03*
X177940000Y-81080000D03*
%TD*%
D13*
%TO.C,H2*%
X177000000Y-59000000D03*
%TD*%
D16*
%TO.C,D1*%
X97300000Y-69979200D03*
X97300000Y-66270800D03*
%TD*%
D17*
%TO.C,R84*%
X172175000Y-59300000D03*
X173825000Y-59300000D03*
%TD*%
D18*
%TO.C,C106*%
X172325000Y-57800000D03*
X173875000Y-57800000D03*
%TD*%
D19*
%TO.C,R83*%
X95525000Y-60200000D03*
X93875000Y-60200000D03*
%TD*%
D17*
%TO.C,R86*%
X173325000Y-114000000D03*
X171675000Y-114000000D03*
%TD*%
D19*
%TO.C,R85*%
X94475000Y-113900000D03*
X96125000Y-113900000D03*
%TD*%
D18*
%TO.C,C108*%
X173275000Y-115500000D03*
X171725000Y-115500000D03*
%TD*%
D20*
%TO.C,C107*%
X96075000Y-115400000D03*
X94525000Y-115400000D03*
%TD*%
%TO.C,C105*%
X93825000Y-58600000D03*
X95375000Y-58600000D03*
%TD*%
D13*
%TO.C,H1*%
X90000000Y-59000000D03*
%TD*%
D21*
%TO.C,J1*%
X88705000Y-75555000D03*
X88705000Y-62845000D03*
D22*
X93895000Y-72950000D03*
X93895000Y-71450000D03*
X93895000Y-69950000D03*
X93895000Y-68450000D03*
X93895000Y-66950000D03*
X93895000Y-65450000D03*
%TD*%
D13*
%TO.C,H3*%
X89700000Y-115400000D03*
%TD*%
D23*
%TO.C,Y1*%
X150450000Y-82125000D03*
X150450000Y-79925000D03*
X152150000Y-79925000D03*
X152150000Y-82125000D03*
%TD*%
D24*
%TO.C,R18*%
X99400000Y-95625000D03*
X99400000Y-97275000D03*
%TD*%
D25*
%TO.C,SW1*%
X150700000Y-71625000D03*
X150700000Y-75025000D03*
%TD*%
D24*
%TO.C,R60*%
X137300000Y-65100000D03*
X137300000Y-66750000D03*
%TD*%
D26*
%TO.C,D15*%
X146500000Y-111312500D03*
X146500000Y-109737500D03*
%TD*%
D19*
%TO.C,R14*%
X113873956Y-100438552D03*
X115523956Y-100438552D03*
%TD*%
%TO.C,R65*%
X123023774Y-78433931D03*
X124673774Y-78433931D03*
%TD*%
D27*
%TO.C,U5*%
X118882444Y-108855000D03*
X118882444Y-107585000D03*
X118882444Y-106315000D03*
X118882444Y-105045000D03*
X113932444Y-105045000D03*
X113932444Y-106315000D03*
X113932444Y-107585000D03*
X113932444Y-108855000D03*
%TD*%
D17*
%TO.C,R8*%
X108225000Y-64525000D03*
X106575000Y-64525000D03*
%TD*%
D28*
%TO.C,C22*%
X100900000Y-94225000D03*
X100900000Y-92675000D03*
%TD*%
D18*
%TO.C,C93*%
X129175000Y-71225000D03*
X127625000Y-71225000D03*
%TD*%
D24*
%TO.C,R44*%
X118882444Y-89625000D03*
X118882444Y-91275000D03*
%TD*%
D20*
%TO.C,C92*%
X146325000Y-81825000D03*
X147875000Y-81825000D03*
%TD*%
%TO.C,C63*%
X150525000Y-76625000D03*
X152075000Y-76625000D03*
%TD*%
D29*
%TO.C,FL2*%
X109740000Y-106085000D03*
X106060000Y-106085000D03*
X106060000Y-107815000D03*
X109740000Y-107815000D03*
%TD*%
D30*
%TO.C,TP7*%
X103400000Y-108950000D03*
%TD*%
D31*
%TO.C,U2*%
X98254468Y-81986734D03*
X98254468Y-82936734D03*
X98254468Y-83886734D03*
X100529468Y-83886734D03*
X100529468Y-82936734D03*
X100529468Y-81986734D03*
%TD*%
D18*
%TO.C,C100*%
X151775000Y-83925000D03*
X150225000Y-83925000D03*
%TD*%
D32*
%TO.C,C89*%
X127129489Y-86180361D03*
X127129489Y-87730361D03*
%TD*%
D24*
%TO.C,R20*%
X99400000Y-107625000D03*
X99400000Y-109275000D03*
%TD*%
D32*
%TO.C,C21*%
X111400000Y-107675000D03*
X111400000Y-109225000D03*
%TD*%
D20*
%TO.C,C99*%
X146725000Y-73225000D03*
X148275000Y-73225000D03*
%TD*%
D32*
%TO.C,C7*%
X97224986Y-85198154D03*
X97224986Y-86748154D03*
%TD*%
D20*
%TO.C,C98*%
X146725000Y-74725000D03*
X148275000Y-74725000D03*
%TD*%
D33*
%TO.C,D4*%
X108227772Y-68997228D03*
X108227772Y-66197228D03*
%TD*%
D18*
%TO.C,C96*%
X130075000Y-67425000D03*
X128525000Y-67425000D03*
%TD*%
D30*
%TO.C,TP1*%
X121524986Y-99273154D03*
%TD*%
D31*
%TO.C,D7*%
X95262500Y-94000000D03*
X95262500Y-95900000D03*
X97537500Y-94950000D03*
%TD*%
D28*
%TO.C,C18*%
X111400000Y-94225000D03*
X111400000Y-92675000D03*
%TD*%
D32*
%TO.C,C79*%
X106256572Y-78870792D03*
X106256572Y-80420792D03*
%TD*%
%TO.C,C91*%
X146331206Y-83650000D03*
X146331206Y-85200000D03*
%TD*%
D19*
%TO.C,R16*%
X113882444Y-98950000D03*
X115532444Y-98950000D03*
%TD*%
D34*
%TO.C,R59*%
X132299520Y-92465184D03*
X132299520Y-90815184D03*
%TD*%
D24*
%TO.C,R82*%
X148024986Y-94235654D03*
X148024986Y-95885654D03*
%TD*%
%TO.C,R21*%
X99400000Y-104625000D03*
X99400000Y-106275000D03*
%TD*%
D30*
%TO.C,TP5*%
X103400000Y-96950000D03*
%TD*%
D19*
%TO.C,R17*%
X114057444Y-110950000D03*
X115707444Y-110950000D03*
%TD*%
D35*
%TO.C,U3*%
X144475000Y-85925000D03*
X144475000Y-85425000D03*
X144475000Y-84925000D03*
X144475000Y-84425000D03*
X144475000Y-83925000D03*
X144475000Y-83425000D03*
X144475000Y-82925000D03*
X144475000Y-82425000D03*
X144475000Y-81925000D03*
X144475000Y-81425000D03*
X144475000Y-80925000D03*
X144475000Y-80425000D03*
X144475000Y-79925000D03*
X144475000Y-79425000D03*
X144475000Y-78925000D03*
X144475000Y-78425000D03*
X144475000Y-77925000D03*
X144475000Y-77425000D03*
X144475000Y-76925000D03*
X144475000Y-76425000D03*
X144475000Y-75925000D03*
X144475000Y-75425000D03*
X144475000Y-74925000D03*
X144475000Y-74425000D03*
X144475000Y-73925000D03*
D36*
X142800000Y-72250000D03*
X142300000Y-72250000D03*
X141800000Y-72250000D03*
X141300000Y-72250000D03*
X140800000Y-72250000D03*
X140300000Y-72250000D03*
X139800000Y-72250000D03*
X139300000Y-72250000D03*
X138800000Y-72250000D03*
X138300000Y-72250000D03*
X137800000Y-72250000D03*
X137300000Y-72250000D03*
X136800000Y-72250000D03*
X136300000Y-72250000D03*
X135800000Y-72250000D03*
X135300000Y-72250000D03*
X134800000Y-72250000D03*
X134300000Y-72250000D03*
X133800000Y-72250000D03*
X133300000Y-72250000D03*
X132800000Y-72250000D03*
X132300000Y-72250000D03*
X131800000Y-72250000D03*
X131300000Y-72250000D03*
X130800000Y-72250000D03*
D35*
X129125000Y-73925000D03*
X129125000Y-74425000D03*
X129125000Y-74925000D03*
X129125000Y-75425000D03*
X129125000Y-75925000D03*
X129125000Y-76425000D03*
X129125000Y-76925000D03*
X129125000Y-77425000D03*
X129125000Y-77925000D03*
X129125000Y-78425000D03*
X129125000Y-78925000D03*
X129125000Y-79425000D03*
X129125000Y-79925000D03*
X129125000Y-80425000D03*
X129125000Y-80925000D03*
X129125000Y-81425000D03*
X129125000Y-81925000D03*
X129125000Y-82425000D03*
X129125000Y-82925000D03*
X129125000Y-83425000D03*
X129125000Y-83925000D03*
X129125000Y-84425000D03*
X129125000Y-84925000D03*
X129125000Y-85425000D03*
X129125000Y-85925000D03*
D36*
X130800000Y-87600000D03*
X131300000Y-87600000D03*
X131800000Y-87600000D03*
X132300000Y-87600000D03*
X132800000Y-87600000D03*
X133300000Y-87600000D03*
X133800000Y-87600000D03*
X134300000Y-87600000D03*
X134800000Y-87600000D03*
X135300000Y-87600000D03*
X135800000Y-87600000D03*
X136300000Y-87600000D03*
X136800000Y-87600000D03*
X137300000Y-87600000D03*
X137800000Y-87600000D03*
X138300000Y-87600000D03*
X138800000Y-87600000D03*
X139300000Y-87600000D03*
X139800000Y-87600000D03*
X140300000Y-87600000D03*
X140800000Y-87600000D03*
X141300000Y-87600000D03*
X141800000Y-87600000D03*
X142300000Y-87600000D03*
X142800000Y-87600000D03*
%TD*%
D28*
%TO.C,C4*%
X103400000Y-64925000D03*
X103400000Y-63375000D03*
%TD*%
%TO.C,C15*%
X115371094Y-103450578D03*
X115371094Y-101900578D03*
%TD*%
D30*
%TO.C,TP4*%
X121224986Y-111673154D03*
%TD*%
D37*
%TO.C,U13*%
X115800000Y-66020000D03*
X115800000Y-67290000D03*
X115800000Y-68560000D03*
X115800000Y-69830000D03*
X123300000Y-69830000D03*
X123300000Y-68560000D03*
X123300000Y-67290000D03*
X123300000Y-66020000D03*
D38*
X119550000Y-67925000D03*
%TD*%
D39*
%TO.C,D14*%
X100712500Y-73025000D03*
X102287500Y-73025000D03*
%TD*%
D34*
%TO.C,R51*%
X139300000Y-92750000D03*
X139300000Y-91100000D03*
%TD*%
D30*
%TO.C,TP3*%
X121724986Y-101773154D03*
%TD*%
D19*
%TO.C,R66*%
X119975000Y-76925000D03*
X121625000Y-76925000D03*
%TD*%
D18*
%TO.C,C97*%
X125592904Y-85204322D03*
X124042904Y-85204322D03*
%TD*%
D26*
%TO.C,D5*%
X143824986Y-98841904D03*
X143824986Y-97266904D03*
%TD*%
D24*
%TO.C,R19*%
X99400000Y-92625000D03*
X99400000Y-94275000D03*
%TD*%
D28*
%TO.C,C6*%
X100400000Y-64925000D03*
X100400000Y-63375000D03*
%TD*%
D34*
%TO.C,R62*%
X141800000Y-66250000D03*
X141800000Y-64600000D03*
%TD*%
D14*
%TO.C,J7*%
X129460000Y-98300000D03*
D15*
X129460000Y-95760000D03*
X132000000Y-98300000D03*
X132000000Y-95760000D03*
X134540000Y-98300000D03*
X134540000Y-95760000D03*
%TD*%
D19*
%TO.C,R64*%
X123021622Y-76925000D03*
X124671622Y-76925000D03*
%TD*%
D14*
%TO.C,J9*%
X117820000Y-60900000D03*
D15*
X117820000Y-58360000D03*
X120360000Y-60900000D03*
X120360000Y-58360000D03*
X122900000Y-60900000D03*
X122900000Y-58360000D03*
X125440000Y-60900000D03*
X125440000Y-58360000D03*
X127980000Y-60900000D03*
X127980000Y-58360000D03*
X130520000Y-60900000D03*
X130520000Y-58360000D03*
X133060000Y-60900000D03*
X133060000Y-58360000D03*
X135600000Y-60900000D03*
X135600000Y-58360000D03*
%TD*%
D28*
%TO.C,C81*%
X124886188Y-66024842D03*
X124886188Y-64474842D03*
%TD*%
D34*
%TO.C,R57*%
X133300000Y-66750000D03*
X133300000Y-65100000D03*
%TD*%
D20*
%TO.C,C26*%
X107125000Y-97950000D03*
X108675000Y-97950000D03*
%TD*%
D34*
%TO.C,R52*%
X137800000Y-92750000D03*
X137800000Y-91100000D03*
%TD*%
%TO.C,R63*%
X139800000Y-66250000D03*
X139800000Y-64600000D03*
%TD*%
D24*
%TO.C,R81*%
X143824986Y-94229404D03*
X143824986Y-95879404D03*
%TD*%
D32*
%TO.C,C10*%
X122882444Y-94175000D03*
X122882444Y-95725000D03*
%TD*%
%TO.C,C13*%
X120850051Y-106168220D03*
X120850051Y-107718220D03*
%TD*%
D34*
%TO.C,R42*%
X118893856Y-112167859D03*
X118893856Y-110517859D03*
%TD*%
D19*
%TO.C,R4*%
X97180349Y-88212533D03*
X98830349Y-88212533D03*
%TD*%
D32*
%TO.C,C78*%
X100256572Y-78870792D03*
X100256572Y-80420792D03*
%TD*%
D29*
%TO.C,FL1*%
X109740000Y-94085000D03*
X106060000Y-94085000D03*
X106060000Y-95815000D03*
X109740000Y-95815000D03*
%TD*%
D17*
%TO.C,R79*%
X105325000Y-73035000D03*
X103675000Y-73035000D03*
%TD*%
D24*
%TO.C,R58*%
X131800000Y-65100000D03*
X131800000Y-66750000D03*
%TD*%
D28*
%TO.C,C16*%
X113900000Y-91431352D03*
X113900000Y-89881352D03*
%TD*%
D40*
%TO.C,U14*%
X145050000Y-64520000D03*
X145050000Y-65790000D03*
X145050000Y-67060000D03*
X145050000Y-68330000D03*
X150350000Y-68330000D03*
X150350000Y-67060000D03*
X150350000Y-65790000D03*
X150350000Y-64520000D03*
%TD*%
D17*
%TO.C,R13*%
X139812448Y-94357788D03*
X138162448Y-94357788D03*
%TD*%
D20*
%TO.C,C95*%
X146725000Y-76225000D03*
X148275000Y-76225000D03*
%TD*%
D30*
%TO.C,TP8*%
X103400000Y-104950000D03*
%TD*%
D12*
%TO.C,J5*%
X92800000Y-93075000D03*
X92800000Y-94325000D03*
X92800000Y-95575000D03*
X92800000Y-96825000D03*
D11*
X89900000Y-90525000D03*
X89900000Y-99375000D03*
%TD*%
D27*
%TO.C,U4*%
X118857444Y-96855000D03*
X118857444Y-95585000D03*
X118857444Y-94315000D03*
X118857444Y-93045000D03*
X113907444Y-93045000D03*
X113907444Y-94315000D03*
X113907444Y-95585000D03*
X113907444Y-96855000D03*
%TD*%
D32*
%TO.C,C24*%
X100900000Y-95675000D03*
X100900000Y-97225000D03*
%TD*%
%TO.C,C20*%
X111400000Y-95675000D03*
X111400000Y-97225000D03*
%TD*%
D20*
%TO.C,C94*%
X142279138Y-70201044D03*
X143829138Y-70201044D03*
%TD*%
D28*
%TO.C,C82*%
X97231400Y-80529015D03*
X97231400Y-78979015D03*
%TD*%
%TO.C,C104*%
X153700000Y-64500000D03*
X153700000Y-62950000D03*
%TD*%
D30*
%TO.C,TP2*%
X121124986Y-89673154D03*
%TD*%
D24*
%TO.C,R61*%
X135800000Y-65100000D03*
X135800000Y-66750000D03*
%TD*%
D32*
%TO.C,C12*%
X121382444Y-94175000D03*
X121382444Y-95725000D03*
%TD*%
D28*
%TO.C,C17*%
X113882444Y-103450000D03*
X113882444Y-101900000D03*
%TD*%
D19*
%TO.C,R1*%
X97175000Y-77425000D03*
X98825000Y-77425000D03*
%TD*%
%TO.C,R15*%
X114057444Y-112450000D03*
X115707444Y-112450000D03*
%TD*%
D24*
%TO.C,R41*%
X118846951Y-101822485D03*
X118846951Y-103472485D03*
%TD*%
D31*
%TO.C,D8*%
X95262500Y-106000000D03*
X95262500Y-107900000D03*
X97537500Y-106950000D03*
%TD*%
D28*
%TO.C,C103*%
X152200000Y-64500000D03*
X152200000Y-62950000D03*
%TD*%
%TO.C,C19*%
X111400000Y-106225000D03*
X111400000Y-104675000D03*
%TD*%
D30*
%TO.C,TP6*%
X103400000Y-92950000D03*
%TD*%
D41*
%TO.C,J4*%
X94099086Y-80035000D03*
X94099086Y-85815000D03*
D42*
X95239086Y-79725000D03*
X95239086Y-80525000D03*
D43*
X95239086Y-81675000D03*
X95239086Y-82675000D03*
X95239086Y-83175000D03*
X95239086Y-84175000D03*
D42*
X95239086Y-85325000D03*
X95239086Y-86125000D03*
X95239086Y-86125000D03*
X95239086Y-85325000D03*
D43*
X95239086Y-84675000D03*
X95239086Y-83675000D03*
X95239086Y-82175000D03*
X95239086Y-81175000D03*
D42*
X95239086Y-80525000D03*
X95239086Y-79725000D03*
D44*
X94599086Y-78605000D03*
D45*
X90419086Y-78605000D03*
D44*
X94599086Y-87245000D03*
D45*
X90419086Y-87245000D03*
%TD*%
D46*
%TO.C,D2*%
X103121749Y-89673154D03*
X101546749Y-89673154D03*
%TD*%
D19*
%TO.C,R67*%
X123023774Y-79959417D03*
X124673774Y-79959417D03*
%TD*%
D47*
%TO.C,Q1*%
X105900000Y-70495000D03*
X105900000Y-69225000D03*
X105900000Y-67955000D03*
X105900000Y-66685000D03*
D48*
X103185886Y-66266022D03*
X103185647Y-70914411D03*
D49*
X102388002Y-68590000D03*
D50*
X102132149Y-68592311D03*
D51*
X100318292Y-66325208D03*
X100316884Y-70858349D03*
%TD*%
D14*
%TO.C,J8*%
X140699986Y-96873154D03*
D15*
X138159986Y-96873154D03*
%TD*%
D20*
%TO.C,C64*%
X150125000Y-78125000D03*
X151675000Y-78125000D03*
%TD*%
D32*
%TO.C,C11*%
X122382444Y-106175000D03*
X122382444Y-107725000D03*
%TD*%
%TO.C,C25*%
X100900000Y-107675000D03*
X100900000Y-109225000D03*
%TD*%
D28*
%TO.C,C5*%
X101900000Y-64925000D03*
X101900000Y-63375000D03*
%TD*%
%TO.C,C80*%
X126415413Y-66010278D03*
X126415413Y-64460278D03*
%TD*%
D19*
%TO.C,R6*%
X98509249Y-89673154D03*
X100159249Y-89673154D03*
%TD*%
D28*
%TO.C,C23*%
X100900000Y-106225000D03*
X100900000Y-104675000D03*
%TD*%
D34*
%TO.C,R43*%
X118882444Y-100275000D03*
X118882444Y-98625000D03*
%TD*%
D28*
%TO.C,C14*%
X115382444Y-91450000D03*
X115382444Y-89900000D03*
%TD*%
D20*
%TO.C,C27*%
X107125000Y-109950000D03*
X108675000Y-109950000D03*
%TD*%
%TO.C,C90*%
X143025000Y-89925000D03*
X144575000Y-89925000D03*
%TD*%
D24*
%TO.C,R80*%
X146520000Y-106700000D03*
X146520000Y-108350000D03*
%TD*%
D31*
%TO.C,U11*%
X102119072Y-78695792D03*
X102119072Y-79645792D03*
X102119072Y-80595792D03*
X104394072Y-80595792D03*
X104394072Y-78695792D03*
%TD*%
D26*
%TO.C,D6*%
X148024986Y-98848154D03*
X148024986Y-97273154D03*
%TD*%
D14*
%TO.C,J11*%
X168925000Y-91950000D03*
D15*
X168925000Y-94490000D03*
%TD*%
D14*
%TO.C,J12*%
X169075000Y-106750000D03*
D15*
X169075000Y-109290000D03*
%TD*%
D14*
%TO.C,J13*%
X169125000Y-69100000D03*
D15*
X169125000Y-66560000D03*
%TD*%
M02*
